<svg width="36" height="36" viewBox="0 0 36 36" fill="none" xmlns="http://www.w3.org/2000/svg">
<path d="M10.8003 10.7C10.8003 6.44741 14.2477 3 18.5003 3C22.7529 3 26.2003 6.44741 26.2003 10.7V14.303C26.2003 14.4302 26.0972 14.5333 25.97 14.5333H11.0306C10.9034 14.5333 10.8003 14.4302 10.8003 14.303V10.7Z" stroke="white" stroke-width="2"/>
<path d="M5.59141 16.3968C5.43362 15.7657 5.91098 15.1543 6.56155 15.1543H30.4384C31.089 15.1543 31.5664 15.7657 31.4086 16.3968L29.0832 25.6982C28.3042 28.8144 25.5043 31.0005 22.2922 31.0005H14.7078C11.4957 31.0005 8.69579 28.8144 7.91675 25.6982L5.59141 16.3968Z" stroke="white" stroke-width="2"/>
</svg>
