<svg width="44" height="44" viewBox="0 0 44 44" fill="none" xmlns="http://www.w3.org/2000/svg">
<mask id="path-1-inside-1_3064_12931" fill="white">
<path fill-rule="evenodd" clip-rule="evenodd" d="M37.2866 9.71356C33.6685 6.09548 27.8025 6.09548 24.1844 9.71356L21.9888 11.9091L19.8158 9.73607C16.1977 6.118 10.3316 6.118 6.71356 9.73607C3.09548 13.3541 3.09548 19.2202 6.71356 22.8383L20.5853 36.71C21.3663 37.491 22.6326 37.491 23.4137 36.71L35.1017 25.022L35.091 25.0113L37.2866 22.8158C40.9047 19.1977 40.9047 13.3316 37.2866 9.71356Z"/>
</mask>
<path d="M24.1844 9.71356L25.5986 11.1278L24.1844 9.71356ZM37.2866 9.71356L35.8724 11.1278L37.2866 9.71356ZM21.9888 11.9091L20.5746 13.3233L21.9888 14.7376L23.403 13.3233L21.9888 11.9091ZM19.8158 9.73607L18.4016 11.1503H18.4016L19.8158 9.73607ZM6.71356 9.73607L8.12777 11.1503L6.71356 9.73607ZM6.71356 22.8383L5.29934 24.2525L6.71356 22.8383ZM20.5853 36.71L19.171 38.1242L19.171 38.1242L20.5853 36.71ZM35.1017 25.022L36.5159 26.4362L37.93 25.0221L36.516 23.6079L35.1017 25.022ZM35.091 25.0113L33.6768 23.5971L32.2627 25.0112L33.6767 26.4254L35.091 25.0113ZM37.2866 22.8158L35.8724 21.4016V21.4016L37.2866 22.8158ZM25.5986 11.1278C28.4356 8.29074 33.0354 8.29074 35.8724 11.1278L38.7008 8.29934C34.3017 3.90022 27.1693 3.90022 22.7702 8.29934L25.5986 11.1278ZM23.403 13.3233L25.5986 11.1278L22.7702 8.29934L20.5746 10.4949L23.403 13.3233ZM18.4016 11.1503L20.5746 13.3233L23.403 10.4949L21.23 8.32186L18.4016 11.1503ZM8.12777 11.1503C10.9648 8.31326 15.5645 8.31326 18.4016 11.1503L21.23 8.32186C16.8309 3.92274 9.69847 3.92274 5.29934 8.32186L8.12777 11.1503ZM8.12777 21.4241C5.29074 18.587 5.29074 13.9873 8.12777 11.1503L5.29934 8.32186C0.900219 12.721 0.900219 19.8534 5.29934 24.2525L8.12777 21.4241ZM21.9995 35.2958L8.12777 21.4241L5.29934 24.2525L19.171 38.1242L21.9995 35.2958ZM21.9995 35.2958H21.9995L19.171 38.1242C20.7331 39.6863 23.2658 39.6863 24.8279 38.1242L21.9995 35.2958ZM33.6875 23.6078L21.9995 35.2958L24.8279 38.1242L36.5159 26.4362L33.6875 23.6078ZM33.6767 26.4254L33.6873 26.4361L36.516 23.6079L36.5054 23.5972L33.6767 26.4254ZM35.8724 21.4016L33.6768 23.5971L36.5052 26.4255L38.7008 24.23L35.8724 21.4016ZM35.8724 11.1278C38.7094 13.9648 38.7094 18.5645 35.8724 21.4016L38.7008 24.23C43.0999 19.8309 43.0999 12.6985 38.7008 8.29934L35.8724 11.1278Z" fill="white" mask="url(#path-1-inside-1_3064_12931)"/>
</svg>
