<svg width="36" height="36" viewBox="0 0 36 36" fill="none" xmlns="http://www.w3.org/2000/svg">
<path d="M9.1995 31.5004C7.4325 31.5004 6 30.0304 6 28.2154V15.0124C6 14.0149 6.4425 13.0699 7.2 12.4474L16.0005 5.22041C16.5628 4.75479 17.2699 4.5 18 4.5C18.73 4.5 19.4372 4.75479 19.9995 5.22041L28.7985 12.4474C29.5575 13.0699 30 14.0149 30 15.0124V28.2154C30 30.0304 28.5675 31.5004 26.8005 31.5004H9.1995Z" stroke="#202020" stroke-width="2" stroke-linecap="round" stroke-linejoin="round"/>
<path d="M14.25 31.5V23.25C14.25 22.4544 14.5661 21.6913 15.1287 21.1287C15.6913 20.5661 16.4544 20.25 17.25 20.25H18.75C19.5457 20.25 20.3087 20.5661 20.8713 21.1287C21.4339 21.6913 21.75 22.4544 21.75 23.25V31.5" stroke="#202020" stroke-width="2" stroke-linecap="round" stroke-linejoin="round"/>
</svg>
