<svg xmlns="http://www.w3.org/2000/svg" xmlns:xlink="http://www.w3.org/1999/xlink">
    <defs>
        <symbol id="icon-facebook" viewBox="0 0 32 32">
            <path d="M32 16c0-8.832-7.168-16-16-16s-16 7.168-16 16c0 7.744 5.504 14.192 12.8 15.68v-10.88h-3.2v-4.8h3.2v-4c0-3.088 2.512-5.6 5.6-5.6h4v4.8h-3.2c-0.88 0-1.6 0.72-1.6 1.6v3.2h4.8v4.8h-4.8v11.12c8.080-0.8 14.4-7.616 14.4-15.92z"></path>
            <path d="M32 16c0-8.832-7.168-16-16-16s-16 7.168-16 16c0 7.744 5.504 14.192 12.8 15.68v-10.88h-3.2v-4.8h3.2v-4c0-3.088 2.512-5.6 5.6-5.6h4v4.8h-3.2c-0.88 0-1.6 0.72-1.6 1.6v3.2h4.8v4.8h-4.8v11.12c8.080-0.8 14.4-7.616 14.4-15.92z"></path>
        </symbol>
        <symbol id="icon-twitter" viewBox="0 0 39 32">
            <path d="M38.547 4.288c-1.409 0.623-2.904 1.032-4.434 1.215 1.611-0.966 2.817-2.484 3.393-4.272-1.514 0.901-3.174 1.532-4.902 1.874-1.162-1.243-2.702-2.068-4.381-2.345s-3.402 0.007-4.903 0.81c-1.5 0.803-2.693 2.079-3.393 3.63s-0.868 3.29-0.478 4.946c-3.070-0.153-6.074-0.951-8.816-2.341s-5.161-3.341-7.1-5.727c-0.686 1.179-1.047 2.519-1.045 3.882 0 2.677 1.364 5.042 3.434 6.426-1.225-0.041-2.424-0.372-3.497-0.966v0.094c-0 1.783 0.617 3.511 1.746 4.892s2.701 2.328 4.448 2.681c-1.138 0.309-2.331 0.354-3.489 0.133 0.493 1.535 1.453 2.877 2.747 3.839s2.856 1.495 4.468 1.524c-1.602 1.257-3.436 2.187-5.398 2.736s-4.012 0.706-6.034 0.462c3.529 2.27 7.638 3.475 11.834 3.471 14.204 0 21.969-11.766 21.969-21.969 0-0.334-0.007-0.666-0.022-0.999 1.511-1.092 2.815-2.445 3.851-3.995z"></path>
            <path d="M38.547 4.288c-1.409 0.623-2.904 1.032-4.434 1.215 1.611-0.966 2.817-2.484 3.393-4.272-1.514 0.901-3.174 1.532-4.902 1.874-1.162-1.243-2.702-2.068-4.381-2.345s-3.402 0.007-4.903 0.81c-1.5 0.803-2.693 2.079-3.393 3.63s-0.868 3.29-0.478 4.946c-3.070-0.153-6.074-0.951-8.816-2.341s-5.161-3.341-7.1-5.727c-0.686 1.179-1.047 2.519-1.045 3.882 0 2.677 1.364 5.042 3.434 6.426-1.225-0.041-2.424-0.372-3.497-0.966v0.094c-0 1.783 0.617 3.511 1.746 4.892s2.701 2.328 4.448 2.681c-1.138 0.309-2.331 0.354-3.489 0.133 0.493 1.535 1.453 2.877 2.747 3.839s2.856 1.495 4.468 1.524c-1.602 1.257-3.436 2.187-5.398 2.736s-4.012 0.706-6.034 0.462c3.529 2.27 7.638 3.475 11.834 3.471 14.204 0 21.969-11.766 21.969-21.969 0-0.334-0.007-0.666-0.022-0.999 1.511-1.092 2.815-2.445 3.851-3.995z"></path>
        </symbol>
        <symbol id="icon-instagram" viewBox="0 0 28 28">
            <path d="M16 14c0-2.203-1.797-4-4-4s-4 1.797-4 4 1.797 4 4 4 4-1.797 4-4zM18.156 14c0 3.406-2.75 6.156-6.156 6.156s-6.156-2.75-6.156-6.156 2.75-6.156 6.156-6.156 6.156 2.75 6.156 6.156zM19.844 7.594c0 0.797-0.641 1.437-1.437 1.437s-1.437-0.641-1.437-1.437 0.641-1.437 1.437-1.437 1.437 0.641 1.437 1.437zM12 4.156c-1.75 0-5.5-0.141-7.078 0.484-0.547 0.219-0.953 0.484-1.375 0.906s-0.688 0.828-0.906 1.375c-0.625 1.578-0.484 5.328-0.484 7.078s-0.141 5.5 0.484 7.078c0.219 0.547 0.484 0.953 0.906 1.375s0.828 0.688 1.375 0.906c1.578 0.625 5.328 0.484 7.078 0.484s5.5 0.141 7.078-0.484c0.547-0.219 0.953-0.484 1.375-0.906s0.688-0.828 0.906-1.375c0.625-1.578 0.484-5.328 0.484-7.078s0.141-5.5-0.484-7.078c-0.219-0.547-0.484-0.953-0.906-1.375s-0.828-0.688-1.375-0.906c-1.578-0.625-5.328-0.484-7.078-0.484zM24 14c0 1.656 0.016 3.297-0.078 4.953-0.094 1.922-0.531 3.625-1.937 5.031s-3.109 1.844-5.031 1.937c-1.656 0.094-3.297 0.078-4.953 0.078s-3.297 0.016-4.953-0.078c-1.922-0.094-3.625-0.531-5.031-1.937s-1.844-3.109-1.937-5.031c-0.094-1.656-0.078-3.297-0.078-4.953s-0.016-3.297 0.078-4.953c0.094-1.922 0.531-3.625 1.937-5.031s3.109-1.844 5.031-1.937c1.656-0.094 3.297-0.078 4.953-0.078s3.297-0.016 4.953 0.078c1.922 0.094 3.625 0.531 5.031 1.937s1.844 3.109 1.937 5.031c0.094 1.656 0.078 3.297 0.078 4.953z"></path>
        </symbol>
    </defs>
</svg>