<svg width="24" height="24" viewBox="0 0 24 24" fill="none" xmlns="http://www.w3.org/2000/svg">
<path d="M22.2129 5.6569C21.4494 5.99437 20.6398 6.21614 19.8109 6.3149C20.6836 5.79169 21.3368 4.96942 21.6489 4.0009C20.8289 4.4889 19.9299 4.8309 18.9939 5.0159C18.3645 4.34248 17.5302 3.89587 16.6208 3.74549C15.7114 3.59511 14.7778 3.74939 13.9651 4.18436C13.1525 4.61932 12.5063 5.31059 12.127 6.1507C11.7477 6.9908 11.6566 7.93268 11.8679 8.8299C10.2048 8.74694 8.57771 8.31499 7.09245 7.5621C5.60719 6.80922 4.29695 5.75226 3.24688 4.4599C2.87526 5.09839 2.67993 5.82414 2.68088 6.5629C2.68088 8.0129 3.41988 9.2939 4.54088 10.0439C3.87708 10.0218 3.22798 9.84254 2.64688 9.5209V9.5719C2.64685 10.5378 2.98091 11.4739 3.59241 12.2216C4.20391 12.9692 5.05519 13.4823 6.00188 13.6739C5.38555 13.8413 4.73916 13.8659 4.11188 13.7459C4.3788 14.5773 4.89909 15.3044 5.59988 15.8253C6.30066 16.3462 7.14684 16.6349 8.01988 16.6509C7.15207 17.3321 6.15859 17.8356 5.09616 18.1328C4.03372 18.43 2.92316 18.515 1.82788 18.3829C3.73958 19.6123 5.96498 20.265 8.23788 20.2629C15.9319 20.2629 20.1379 13.8899 20.1379 8.3629C20.1379 8.18224 20.1339 8.0019 20.1259 7.8219C20.9442 7.23021 21.6506 6.49742 22.2119 5.6579" fill="white"/>
</svg>
